<svg xmlns="http://www.w3.org/2000/svg" width="1600" height="800" viewBox="0 0 1600 800">
  <defs>
    <linearGradient id="g" x1="0" y1="0" x2="1" y2="1">
      <stop offset="0" stop-color="#0f172a"/>
      <stop offset="0.5" stop-color="#1e1b4b"/>
      <stop offset="1" stop-color="#064e3b"/>
    </linearGradient>
  </defs>
  <rect width="1600" height="800" fill="url(#g)"/>
  <g fill="#ffffff" opacity="0.08">
    <circle cx="260" cy="180" r="160"/>
    <circle cx="1380" cy="640" r="210"/>
    <path d="M1160 160 h200 a20 20 0 0 1 20 20 v140 a20 20 0 0 1 -20 20 h-200 a20 20 0 0 1 -20 -20 v-140 a20 20 0 0 1 20 -20 z" />
  </g>
  <g font-family="Inter, Arial, sans-serif">
    <text x="80" y="170" fill="#a7f3d0" font-size="28" font-weight="700">Suppression Virus & Malware</text>
    <text x="80" y="250" fill="#ffffff" font-size="68" font-weight="800">Nettoyage complet à distance sans formatage</text>
    <text x="80" y="315" fill="#e5e7eb" font-size="28">PC lent, pubs intempestives, antivirus désactivé ?</text>
    <text x="80" y="370" fill="#cbd5e1" font-size="22">Intervention 15 min • Sécurisation système</text>
  </g>
  <g transform="translate(1200,520)" opacity="0.9">
    <circle cx="0" cy="0" r="56" fill="#10b981"/>
    <path d="M-20 0 l20 20 l40 -40" stroke="#fff" stroke-width="12" fill="none" stroke-linecap="round"/>
  </g>
</svg>
